<svg xmlns="http://www.w3.org/2000/svg" xmlns:xlink="http://www.w3.org/1999/xlink" version="1.1" x="0px" y="0px" viewBox="0 0 32 40" enable-background="new 0 0 32 32" xml:space="preserve" fill="#FFBD33"><g display="none"><g display="inline"><circle fill="#000000" cx="16" cy="16" r="16"/></g><line display="inline" fill="none" stroke="#000000" stroke-width="2" stroke-miterlimit="10" x1="10.005" y1="18.756" x2="22.005" y2="18.756"/><path display="inline" fill="none"  stroke="#000000" stroke-width="2" stroke-miterlimit="10" d="M18.598,19.048v2.613   c0,1.426-1.167,2.593-2.593,2.593h0c-1.426,0-2.593-1.167-2.593-2.593v-2.613"/><circle display="inline" cx="10.432" cy="12.634" r="2.785"/><circle display="inline" cx="21.704" cy="12.634" r="2.785"/><line display="inline" fill="none" stroke="#000000" stroke-width="2" stroke-miterlimit="10" x1="6.39" y1="9.849" x2="14.474" y2="9.849"/><line display="inline" fill="none" stroke="#000000" stroke-width="2" stroke-miterlimit="10" x1="17.526" y1="9.849" x2="25.61" y2="9.849"/></g><g display="none"><rect x="10.005" y="17.756" display="inline" fill="#000000" width="12" height="2"/><path display="inline" fill="#000000" d="M16.005,25.254c-1.981,0-3.593-1.611-3.593-3.593v-2.613h2v2.613   c0,0.878,0.715,1.593,1.593,1.593s1.593-0.715,1.593-1.593v-2.613h2v2.613C19.598,23.643,17.986,25.254,16.005,25.254z"/><circle display="inline" fill="#000000" cx="10.432" cy="12.634" r="2.785"/><circle display="inline" fill="#000000" cx="21.704" cy="12.634" r="2.785"/><rect x="6.391" y="8.849" display="inline" fill="#000000" width="8.083" height="2"/><rect x="17.526" y="8.849" display="inline" fill="#000000" width="8.083" height="2"/></g><g display="none"><rect x="-371.667" y="-125.318" display="inline" fill="#000000" width="416.333" height="207.667"/></g><g><path d="M10.005,19.756h2.407v1.905c0,1.981,1.611,3.593,3.593,3.593s3.593-1.611,3.593-3.593v-1.905h2.407v-2h-12V19.756z    M17.598,21.661c0,0.878-0.715,1.593-1.593,1.593s-1.593-0.715-1.593-1.593v-1.905h3.186V21.661z"/><path d="M13.217,12.634c0-0.683-0.256-1.301-0.664-1.785h1.921v-2H6.391v2h1.92c-0.408,0.484-0.664,1.102-0.664,1.785   c0,1.538,1.247,2.785,2.785,2.785C11.97,15.419,13.217,14.172,13.217,12.634z"/><path d="M17.526,10.849h2.057c-0.408,0.484-0.664,1.102-0.664,1.785c0,1.538,1.247,2.785,2.785,2.785   c1.538,0,2.785-1.247,2.785-2.785c0-0.683-0.256-1.301-0.664-1.785h1.784v-2h-8.083V10.849z"/><path d="M27.488,0H4.512C2.024,0,0,2.024,0,4.512v22.977C0,29.976,2.024,32,4.512,32h22.977C29.976,32,32,29.976,32,27.488V4.512   C32,2.024,29.976,0,27.488,0z M30,27.488C30,28.873,28.873,30,27.488,30H4.512C3.127,30,2,28.873,2,27.488V4.512   C2,3.127,3.127,2,4.512,2h22.977C28.873,2,30,3.127,30,4.512V27.488z"/></g><g display="none"><path display="inline" d="M16.005,24.254c0.878,0,1.593-0.715,1.593-1.593v-1.905h-3.186v1.905   C14.412,23.539,15.127,24.254,16.005,24.254z"/><path display="inline" d="M27.488,0H4.512C2.024,0,0,2.024,0,4.512v22.977C0,29.976,2.024,32,4.512,32h22.977   C29.976,32,32,29.976,32,27.488V4.512C32,2.024,29.976,0,27.488,0z M7.647,12.634c0-0.683,0.256-1.301,0.664-1.785h-1.92v-2h8.083   v2h-1.921c0.408,0.484,0.664,1.102,0.664,1.785c0,1.538-1.247,2.785-2.785,2.785C8.894,15.419,7.647,14.172,7.647,12.634z    M22.005,20.756h-2.407v1.905c0,1.981-1.611,3.593-3.593,3.593s-3.593-1.611-3.593-3.593v-1.905h-2.407v-2h12V20.756z    M25.609,10.849h-1.784c0.408,0.484,0.664,1.102,0.664,1.785c0,1.538-1.247,2.785-2.785,2.785c-1.538,0-2.785-1.247-2.785-2.785   c0-0.683,0.256-1.301,0.664-1.785h-2.057v-2h8.083V10.849z"/></g><g display="none"><g display="inline"><g><path fill="#000000" d="M16,31C7.729,31,1,24.271,1,16S7.729,1,16,1s15,6.729,15,15S24.271,31,16,31z"/></g><g><path fill="#000000" d="M16,2c7.72,0,14,6.28,14,14s-6.28,14-14,14S2,23.72,2,16S8.28,2,16,2 M16,0C7.163,0,0,7.163,0,16     s7.163,16,16,16s16-7.163,16-16S24.837,0,16,0L16,0z"/></g></g><rect x="10.005" y="17.756" display="inline" fill="#000000" width="12" height="2"/><path display="inline" fill="#000000" d="M16.005,25.254c-1.981,0-3.593-1.611-3.593-3.593v-2.613h2v2.613   c0,0.878,0.715,1.593,1.593,1.593s1.593-0.715,1.593-1.593v-2.613h2v2.613C19.598,23.643,17.986,25.254,16.005,25.254z"/><circle display="inline" fill="#000000" cx="10.432" cy="12.634" r="2.785"/><circle display="inline" fill="#000000" cx="21.704" cy="12.634" r="2.785"/><rect x="6.391" y="8.849" display="inline" fill="#000000" width="8.083" height="2"/><rect x="17.526" y="8.849" display="inline" fill="#000000" width="8.083" height="2"/></g><g display="none"><g display="inline"><path fill="#000000" d="M14.412,22.661c0,0.878,0.715,1.593,1.593,1.593s1.593-0.715,1.593-1.593v-1.905h-3.186V22.661z"/></g><g display="inline"></g></g></svg>